<svg version="1.1" id="Layer_1" xmlns="http://www.w3.org/2000/svg" xmlns:xlink="http://www.w3.org/1999/xlink" x="0px" y="0px"
	 width="100%" viewBox="0 0 720 640" enable-background="new 0 0 720 640" xml:space="preserve">
<path fill="#000000" opacity="1.000000" stroke="none" 
	d="
M124.791397,400.991058 
	C117.737915,353.891571 123.100685,308.309662 139.781570,264.540222 
	C153.192184,229.351700 174.298767,198.480606 200.698135,171.472794 
	C229.688461,141.814285 264.927582,122.627136 304.349274,110.812187 
	C328.865417,103.464531 353.952667,99.429352 379.630432,99.716408 
	C429.797241,100.277245 476.129730,113.538094 518.552856,140.689377 
	C542.547363,156.046127 563.009399,175.100494 581.291321,196.719986 
	C582.333679,197.952606 583.719360,199.069901 583.368408,201.772400 
	C576.653320,204.033539 569.327759,205.538727 562.492981,208.468887 
	C560.881348,209.159805 559.664551,207.063126 558.574829,205.837189 
	C535.483582,179.859589 508.489716,159.034485 476.995605,144.194916 
	C452.948395,132.864243 427.649628,126.422401 401.137390,124.132751 
	C370.255402,121.465729 340.026855,124.033432 310.233917,132.747452 
	C264.818237,146.030930 227.273590,171.009293 198.128601,208.202515 
	C175.569748,236.990845 158.866470,268.929504 151.006790,304.863556 
	C146.670395,324.689392 143.232803,344.847992 144.407776,365.269623 
	C146.387756,399.682526 153.845078,432.704254 170.553482,463.311096 
	C182.754929,485.661987 196.813858,506.598969 214.629181,524.870056 
	C244.359772,555.361389 280.360565,575.312378 321.233398,586.109985 
	C348.645660,593.351624 376.708496,594.354065 405.005676,591.152100 
	C434.366119,587.829834 462.083221,579.396912 488.026611,565.582764 
	C525.145813,545.817749 555.778625,518.792480 578.642273,483.098480 
	C597.788818,453.207611 608.658264,420.477783 613.681763,385.660309 
	C619.041626,348.511292 612.872253,312.672180 600.052307,277.769806 
	C598.857300,274.516327 599.031982,271.900604 600.354309,268.745270 
	C603.117065,262.152588 605.318176,255.325623 607.807434,248.616196 
	C608.312012,247.256058 608.451599,245.662491 609.900940,244.660156 
	C612.614990,244.785034 613.165161,247.142502 614.051575,248.988525 
	C624.142273,270.002899 630.070129,292.270813 634.487305,315.079712 
	C637.419556,330.220764 638.396362,345.405945 638.424805,360.766998 
	C638.500366,401.605469 627.896912,439.718781 609.666443,475.966125 
	C597.334778,500.484894 581.232971,522.395325 561.342224,541.089844 
	C520.496155,579.479431 472.669342,604.379211 416.696198,612.327026 
	C376.879242,617.980774 337.627502,615.472107 299.252075,603.087708 
	C235.477539,582.506531 188.577469,541.449463 155.156387,484.006378 
	C140.157349,458.226562 130.281433,430.663177 124.791397,400.991058 
z"/>
<path fill="#000000" opacity="1.000000" stroke="none" 
	d="
M559.794983,363.657104 
	C559.335938,367.504059 557.693604,368.512054 554.259094,367.480896 
	C536.741577,362.221619 519.143250,357.228058 501.667511,351.835815 
	C498.100037,350.735016 495.773315,350.557281 493.042267,353.675934 
	C482.144775,366.119965 468.875000,376.059082 456.828430,387.298553 
	C454.643005,389.337585 452.437531,391.385834 450.495026,393.647705 
	C447.208221,397.474976 446.358337,397.460693 443.802307,393.073181 
	C436.729584,380.932617 431.888977,367.790741 426.700470,354.812134 
	C423.613434,347.090210 420.544159,339.343353 417.949982,331.448975 
	C416.440613,326.855774 413.722198,325.022217 409.098450,324.127747 
	C383.623505,319.199860 358.343903,313.385345 333.355713,306.359924 
	C331.942413,305.962555 330.601349,305.308228 329.102936,304.725403 
	C330.141174,300.652954 333.357056,299.546204 336.460999,298.491608 
	C358.670959,290.945648 380.916321,283.503845 403.122559,275.946991 
	C425.012909,268.497589 446.931580,261.124451 468.728394,253.408768 
	C503.387726,241.139984 537.996826,228.726135 572.541626,216.138962 
	C585.206177,211.524368 598.577148,209.198029 610.996948,203.860291 
	C611.747192,203.537857 612.634644,203.524582 613.600647,204.462570 
	C614.043579,208.222992 611.883057,211.568268 610.495483,214.982742 
	C599.020813,243.218216 589.701538,272.200531 580.265381,301.148438 
	C574.130127,319.969971 567.758240,338.714325 561.518738,357.501984 
	C560.890625,359.393341 560.445129,361.345367 559.794983,363.657104 
M523.875244,282.402771 
	C518.905457,286.316803 513.970764,290.276367 508.958954,294.135803 
	C496.824280,303.480347 484.565887,312.667023 472.542480,322.152039 
	C467.997284,325.737671 468.540405,327.748962 473.820496,329.625427 
	C497.183685,337.928528 521.031860,344.706055 544.655151,352.191132 
	C548.921204,353.542816 551.609192,352.632629 553.080627,348.123352 
	C557.879028,333.418182 562.750427,318.735352 567.764404,304.102356 
	C574.396057,284.748413 579.891541,265.016113 587.274353,245.910828 
	C589.387695,240.441879 591.069824,234.806290 592.949707,229.247131 
	C592.487854,228.918991 592.026062,228.590851 591.564209,228.262711 
	C568.339539,245.078522 546.374084,263.505096 523.875244,282.402771 
M499.944305,269.428406 
	C525.003479,254.717834 551.464355,242.566254 576.394653,227.491592 
	C505.758759,252.692398 434.968323,277.291565 363.789764,300.720093 
	C364.436279,302.673737 365.340790,302.801697 366.110352,303.000549 
	C382.550171,307.248138 399.246368,310.286743 415.900482,313.523132 
	C417.662201,313.865448 419.107819,313.121185 420.591187,312.257812 
	C446.369507,297.253967 473.306824,284.396301 499.944305,269.428406 
M447.640137,352.235901 
	C448.718231,343.505981 449.765869,334.772156 450.892822,326.048553 
	C451.235107,323.398987 452.935272,321.578430 455.019348,320.055054 
	C470.325836,308.866638 485.569092,297.590515 500.949280,286.504486 
	C508.885956,280.783752 516.545044,274.738892 524.269653,268.469055 
	C522.791138,267.797119 522.097839,268.725922 521.297424,269.199921 
	C504.842010,278.944977 488.352509,288.633575 471.962311,298.487213 
	C459.130066,306.201843 446.185120,313.705444 432.903015,320.620300 
	C430.509827,321.866180 428.867889,323.263397 429.920563,326.495483 
	C432.234680,333.600586 433.975159,340.900757 436.476532,347.933990 
	C438.482391,353.573944 440.411652,359.350403 443.887299,365.299774 
	C447.128448,361.029266 446.600159,356.842804 447.640137,352.235901 
M460.307159,347.826904 
	C459.181854,355.269226 458.056549,362.711548 456.931274,370.153900 
	C457.351562,370.404114 457.771881,370.654327 458.192200,370.904541 
	C467.692780,363.779999 475.730865,355.146393 484.174194,345.575470 
	C478.975647,343.906921 474.901245,342.586121 470.818542,341.291565 
	C462.664886,338.706177 462.662994,338.712128 460.307159,347.826904 
z"/>
<path fill="#000000" opacity="1.000000" stroke="none" 
	d="
M291.666260,263.740967 
	C300.222778,231.137650 315.205566,202.185760 335.841187,176.162918 
	C344.707031,164.982513 355.606140,155.934326 367.607178,148.231094 
	C368.298828,147.787125 369.067902,147.432785 369.845184,147.165451 
	C370.273682,147.018082 370.794464,147.139053 371.320099,147.139053 
	C372.788025,149.339279 372.207977,151.729034 372.212006,153.969437 
	C372.278168,190.794083 372.315338,227.618912 372.261505,264.443542 
	C372.256439,267.912537 373.934601,271.835449 372.045380,274.727844 
	C370.236023,277.497986 366.004913,276.788239 362.929840,277.934387 
	C350.146057,282.699249 337.351624,287.451233 324.437836,291.845764 
	C316.863617,294.423248 314.027985,300.222534 312.735504,307.241852 
	C312.068024,310.866760 315.071442,312.022644 317.702423,313.134613 
	C324.668976,316.079193 332.253845,316.572205 339.481873,318.526245 
	C349.113281,321.130005 358.859894,323.329163 368.610413,325.457520 
	C371.544037,326.097839 372.380768,327.595642 372.349213,330.305237 
	C372.273529,336.802704 372.215363,343.304749 372.382507,349.798950 
	C372.469849,353.192749 370.852722,354.077728 367.829559,354.074921 
	C339.836456,354.048859 311.843262,354.075806 283.850128,354.117645 
	C280.929565,354.122009 279.124908,353.411255 279.263947,349.885376 
	C280.354980,322.215759 282.999725,294.768280 290.473206,267.976318 
	C290.831146,266.693176 291.220367,265.418701 291.666260,263.740967 
z"/>
<path fill="#000000" opacity="1.000000" stroke="none" 
	d="
M340.000061,365.673950 
	C348.832275,365.677979 357.164551,365.657257 365.496582,365.694550 
	C372.138153,365.724274 372.293030,365.900146 372.306396,372.350708 
	C372.336823,387.015015 372.232727,401.681519 372.486908,416.341858 
	C372.540649,419.443207 371.585449,424.096527 377.793976,423.826416 
	C371.396149,427.548431 364.567261,429.170044 357.749969,430.704071 
	C336.219330,435.548889 314.348846,438.309814 292.346222,437.098816 
	C254.504044,435.016113 220.906357,422.211365 193.759323,394.763458 
	C185.760757,386.676270 181.565979,376.824158 179.335342,366.084412 
	C181.207428,364.574554 182.947815,365.248932 184.547165,365.026642 
	C189.186462,364.381805 191.552475,366.246216 191.194870,371.074982 
	C190.535889,379.973572 195.722641,385.257904 202.578537,389.504395 
	C203.276840,389.936981 204.034760,390.338715 205.291962,389.779572 
	C206.771301,384.971680 204.835358,380.232574 203.921188,375.459839 
	C202.034286,365.608795 201.973404,365.651337 212.001938,365.671326 
	C228.832901,365.704865 245.665009,365.799133 262.494232,365.629639 
	C266.723969,365.587036 268.171082,366.873779 268.496246,371.266571 
	C269.637299,386.682770 270.584106,402.132324 273.185455,417.411804 
	C273.692780,420.391785 275.020935,422.258881 277.862488,423.220673 
	C283.061127,424.980377 285.194397,423.295044 284.382904,417.863647 
	C282.069275,402.378052 280.860779,386.786591 279.641479,371.188324 
	C279.272308,366.465027 280.479614,364.642365 285.538055,364.939514 
	C303.506653,365.995056 321.508606,365.660950 340.000061,365.673950 
z"/>
<path fill="#000000" opacity="1.000000" stroke="none" 
	d="
M427.275848,547.288574 
	C454.857239,513.808105 472.883331,476.237061 479.677612,433.627075 
	C482.554474,415.584839 484.491699,397.392181 486.818359,379.263062 
	C487.817963,371.473969 493.738007,367.439209 499.188965,363.134338 
	C500.511597,362.089813 502.407898,363.362335 504.019928,363.668549 
	C516.645447,366.066803 528.724365,370.427582 541.029175,373.981049 
	C544.537659,374.994232 548.097046,376.155487 551.697693,376.444550 
	C556.333374,376.816742 557.011475,378.925842 556.372559,383.024963 
	C551.629822,413.452362 542.062012,442.032837 526.115906,468.599030 
	C498.378998,514.808777 459.485901,547.698181 409.878021,568.221741 
	C407.660614,569.139099 405.460876,570.409363 402.607758,569.844360 
	C411.453156,563.099609 420.086029,556.225464 427.275848,547.288574 
z"/>
<path fill="#000000" opacity="1.000000" stroke="none" 
	d="
M272.040253,302.860168 
	C270.317322,318.007812 267.865173,332.642181 268.020111,347.519287 
	C268.088013,354.035156 267.897583,354.139343 261.215546,354.144958 
	C243.390228,354.159973 225.563156,354.011658 207.740631,354.234619 
	C202.791199,354.296478 201.393616,352.458893 201.699493,347.766144 
	C203.671402,317.514252 210.963226,288.738800 224.319077,261.429626 
	C242.601761,224.046371 268.374603,193.393219 303.722473,171.064148 
	C311.324341,166.262085 318.759003,161.194397 326.382538,156.427902 
	C331.741577,153.077286 337.576996,150.746246 344.363525,149.612610 
	C300.401184,191.289902 280.377869,244.100372 272.040253,302.860168 
z"/>
<path fill="#000000" opacity="1.000000" stroke="none" 
	d="
M473.321899,398.198059 
	C469.664642,425.154388 466.579803,451.789886 456.104187,476.794556 
	C444.283234,505.010468 428.855347,530.873291 406.581116,552.216003 
	C401.162720,557.407776 395.119873,561.847839 388.833740,565.939209 
	C387.614471,566.732788 386.397797,567.748718 384.560944,567.356445 
	C382.968933,565.594910 383.712372,563.342285 383.709229,561.299988 
	C383.665924,532.992126 383.992401,504.678375 383.455780,476.380707 
	C383.335327,470.030029 385.417267,467.398438 390.549561,464.361206 
	C418.537964,447.798187 442.419403,426.665253 460.676605,399.462555 
	C463.761719,394.865784 467.350525,390.463409 472.004333,387.002563 
	C475.468384,390.596527 473.332062,394.289276 473.321899,398.198059 
z"/>
<path fill="#000000" opacity="1.000000" stroke="none" 
	d="
M543.310730,460.328186 
	C556.931641,435.584473 564.004822,409.212311 567.468872,381.741791 
	C567.988770,377.619293 568.412842,373.476166 568.648010,369.329346 
	C568.798096,366.683197 569.634094,365.480896 572.546143,365.555298 
	C580.370239,365.755280 588.202820,365.761627 596.029541,365.656525 
	C599.666138,365.607697 600.975647,366.702393 600.573608,370.651611 
	C593.239807,442.698334 561.108643,500.447632 501.274750,541.888550 
	C480.332306,556.393250 457.212891,566.662598 432.307220,572.586487 
	C431.350586,572.813965 430.352203,572.895569 429.367798,572.956299 
	C429.124207,572.971313 428.859100,572.638062 427.620270,571.797546 
	C478.931366,547.630005 517.753296,511.027496 543.310730,460.328186 
z"/>
<path fill="#000000" opacity="1.000000" stroke="none" 
	d="
M446.297333,250.370514 
	C425.630280,257.284424 405.342133,264.100220 384.227722,271.193634 
	C384.227722,228.813400 384.227722,187.509796 384.227722,144.503906 
	C421.697113,169.622025 445.185791,204.001312 461.803680,244.504990 
	C456.751099,247.241959 451.555847,248.376434 446.297333,250.370514 
z"/>
<path fill="#000000" opacity="1.000000" stroke="none" 
	d="
M167.529419,290.528198 
	C169.154831,284.808777 170.250397,279.277191 174.897339,274.260681 
	C174.690811,279.186371 173.820480,282.966339 172.909042,286.816620 
	C168.119339,307.050690 163.787643,327.397034 162.336411,348.188629 
	C161.322067,362.720947 165.787323,376.301422 172.035049,389.044373 
	C190.221695,426.138245 221.204742,446.967712 260.367188,457.048218 
	C297.003296,466.478455 332.520966,460.935486 367.063690,447.985596 
	C390.879761,439.057007 412.171814,425.198975 432.340546,409.725006 
	C434.638153,407.962189 436.712860,405.828522 440.083435,404.710724 
	C439.610229,409.761230 437.127594,413.147125 434.380157,416.490753 
	C428.093140,424.142090 420.544922,430.341522 412.709534,436.325531 
	C387.544006,455.544891 359.782471,469.291992 328.477722,474.533417 
	C279.401642,482.750305 233.755264,474.545258 194.757401,441.890991 
	C174.808563,425.187195 161.766388,403.658661 157.914429,377.383301 
	C154.538330,354.353943 156.461304,331.604187 161.949738,309.066254 
	C163.449539,302.907379 165.350647,296.889435 167.529419,290.528198 
z"/>
<path fill="#000000" opacity="1.000000" stroke="none" 
	d="
M198.509659,233.551056 
	C211.903809,212.996063 227.847534,195.271347 246.947433,180.381760 
	C267.837646,164.096512 291.008942,152.407883 316.507660,145.318817 
	C319.151428,144.583786 321.788116,143.377594 324.703125,143.947113 
	C324.718689,146.009979 323.170532,146.277130 322.060211,146.710556 
	C305.685730,153.102448 292.384979,164.326996 278.472229,174.537476 
	C247.672333,197.141281 227.144302,227.739624 211.270599,261.858582 
	C198.338440,289.654938 191.230560,318.868195 190.380295,349.546387 
	C190.306076,352.224365 189.788071,353.971008 186.701721,354.361969 
	C183.311951,354.791382 180.463760,354.957703 179.178665,350.806335 
	C174.962067,337.185120 172.784225,323.380554 173.654327,309.035431 
	C174.731415,291.277649 178.578293,274.185791 184.349884,257.427063 
	C187.398987,248.573517 194.004532,241.916214 198.509659,233.551056 
z"/>
<path fill="#000000" opacity="1.000000" stroke="none" 
	d="
M341.679596,545.321472 
	C326.033752,528.606812 313.190125,510.451813 303.446472,488.849152 
	C327.723358,489.023346 349.682617,482.997009 371.788910,474.459412 
	C371.788910,506.186798 371.788910,537.007141 371.788910,568.723450 
	C360.015106,562.807922 350.932526,554.243835 341.679596,545.321472 
z"/>
<path fill="#000000" opacity="1.000000" stroke="none" 
	d="
M252.602036,539.442566 
	C217.669876,513.038025 177.508286,458.644012 174.518463,433.543976 
	C178.195709,435.397186 180.425415,438.514099 182.828873,441.299561 
	C190.623627,450.333099 199.393616,458.206940 209.922928,463.856018 
	C217.272888,467.799408 221.898239,473.671082 225.943619,480.912689 
	C241.495056,508.751404 263.804871,530.487366 289.408081,549.091980 
	C299.407684,556.358154 309.787598,562.914001 321.194672,567.773193 
	C323.242249,568.645325 325.598450,569.289062 327.282471,573.189270 
	C299.227051,567.371277 275.247559,555.376404 252.602036,539.442566 
z"/>
<path fill="#000000" opacity="1.000000" stroke="none" 
	d="
M500.301636,231.400238 
	C492.041870,234.637711 483.691772,236.509262 476.047150,240.268188 
	C472.208466,242.155716 471.036194,239.707001 469.932648,236.872665 
	C463.384644,220.054749 454.771729,204.349594 445.041046,189.157257 
	C435.697388,174.569260 423.855347,162.273102 411.521088,150.338669 
	C410.328125,149.184387 409.075989,148.090836 407.898346,146.921677 
	C407.720581,146.745209 407.801392,146.308334 407.769348,145.991089 
	C430.347992,147.983124 502.706848,203.352417 512.151306,226.043594 
	C509.037994,229.236511 504.522552,229.569504 500.301636,231.400238 
z"/>
<path fill="#000000" opacity="1.000000" stroke="none" 
	d="
M319.335693,536.668579 
	C328.300446,549.104309 338.817963,559.598022 351.313965,569.588440 
	C322.550598,566.729431 244.778107,503.837433 239.206421,479.555023 
	C242.753311,479.480103 245.513947,481.565369 248.597687,482.493042 
	C261.555817,486.391235 274.778992,488.880951 288.297394,489.606964 
	C290.874847,489.745361 292.645538,490.267426 293.714996,492.925903 
	C300.041412,508.653076 309.495422,522.572205 319.335693,536.668579 
z"/>
<path fill="#000000" opacity="1.000000" stroke="none" 
	d="
M383.776886,410.929443 
	C383.774780,397.299316 383.896790,384.155731 383.694122,371.017120 
	C383.627441,366.694214 384.911316,365.305389 389.427643,365.418121 
	C398.549500,365.645905 407.722321,366.384338 416.821472,364.970398 
	C419.584595,364.541016 421.111755,365.483643 422.135559,368.111847 
	C425.573120,376.936310 429.189087,385.691315 432.739349,394.471863 
	C433.801422,397.098541 434.361908,399.462616 431.250671,401.339874 
	C417.102509,409.876526 402.267548,416.909729 386.569183,422.091156 
	C385.812317,422.340973 384.965790,422.319244 383.774536,422.474274 
	C383.774536,418.627411 383.774536,415.022675 383.776886,410.929443 
z"/>
<path fill="#000000" opacity="1.000000" stroke="none" 
	d="
M476.842529,173.185974 
	C463.451935,162.548538 449.033691,154.073181 433.936188,145.140472 
	C457.100342,142.520920 533.368713,190.209198 545.984558,214.777283 
	C539.224609,217.433228 532.539429,220.168945 525.762390,222.654236 
	C523.794556,223.375870 522.903931,221.364807 521.946655,220.074753 
	C508.987915,202.611160 494.443359,186.674164 476.842529,173.185974 
z"/>
<path fill="#000000" opacity="1.000000" stroke="none" 
	d="
M596.525146,314.654358 
	C599.094055,326.120850 600.394287,337.297546 600.461487,348.646790 
	C600.484863,352.584625 599.463806,354.437592 595.144775,354.235016 
	C589.007263,353.947113 582.845337,354.214752 576.694397,354.164520 
	C573.899597,354.141724 572.010376,353.225067 573.453186,349.904022 
	C579.556580,335.855469 583.262390,320.963654 588.688538,306.678955 
	C589.378662,304.862091 589.937500,302.887817 591.775513,301.307861 
	C595.038452,305.082031 595.080872,309.913818 596.525146,314.654358 
z"/>
<path fill="#000000" opacity="1.000000" stroke="none" 
	d="
M386.628967,329.433044 
	C390.904877,330.405121 394.741058,331.796692 398.666321,332.125732 
	C406.192444,332.756622 409.902435,336.964783 412.331879,343.726227 
	C416.043549,354.056183 416.338623,353.975769 405.339905,354.121277 
	C399.854187,354.193848 394.363281,354.035156 388.881744,354.206146 
	C385.321564,354.317230 383.676941,353.030609 383.769440,349.318695 
	C383.901825,344.002502 383.715668,338.679016 383.734924,333.358917 
	C383.741394,331.578583 383.453857,329.479675 386.628967,329.433044 
z"/>
</svg>
